<svg width="132" height="72" viewBox="0 0 132 72" fill="none" xmlns="http://www.w3.org/2000/svg">
<path d="M64.6591 26.4773H47.6136C47.3864 24.7273 46.9205 23.1477 46.2159 21.7386C45.5114 20.3295 44.5795 19.125 43.4205 18.125C42.2614 17.125 40.8864 16.3636 39.2955 15.8409C37.7273 15.2955 35.9886 15.0227 34.0795 15.0227C30.6932 15.0227 27.7727 15.8523 25.3182 17.5114C22.8864 19.1705 21.0114 21.5682 19.6932 24.7045C18.3977 27.8409 17.75 31.6364 17.75 36.0909C17.75 40.7273 18.4091 44.6136 19.7273 47.75C21.0682 50.8636 22.9432 53.2159 25.3523 54.8068C27.7841 56.375 30.6591 57.1591 33.9773 57.1591C35.8409 57.1591 37.5341 56.9205 39.0568 56.4432C40.6023 55.9659 41.9545 55.2727 43.1136 54.3636C44.2955 53.4318 45.2614 52.3068 46.0114 50.9886C46.7841 49.6477 47.3182 48.1364 47.6136 46.4545L64.6591 46.5568C64.3636 49.6477 63.4659 52.6932 61.9659 55.6932C60.4886 58.6932 58.4545 61.4318 55.8636 63.9091C53.2727 66.3636 50.1136 68.3182 46.3864 69.7727C42.6818 71.2273 38.4318 71.9545 33.6364 71.9545C27.3182 71.9545 21.6591 70.5682 16.6591 67.7955C11.6818 65 7.75 60.9318 4.86364 55.5909C1.97727 50.25 0.534091 43.75 0.534091 36.0909C0.534091 28.4091 2 21.8977 4.93182 16.5568C7.86364 11.2159 11.8295 7.15909 16.8295 4.38636C21.8295 1.61363 27.4318 0.22727 33.6364 0.22727C37.8636 0.22727 41.7727 0.81818 45.3636 2C48.9545 3.15909 52.1136 4.86363 54.8409 7.11363C57.5682 9.34091 59.7841 12.0795 61.4886 15.3295C63.1932 18.5795 64.25 22.2955 64.6591 26.4773ZM100.906 71L112.361 1.18182H124.634L113.179 71H100.906ZM69.7812 54.3636L71.8608 42.0909H127.224L125.145 54.3636H69.7812ZM76.3608 71L87.8153 1.18182H100.088L88.6335 71H76.3608ZM73.7699 30.0909L75.8494 17.8182H131.213L129.134 30.0909H73.7699Z" fill="white"/>
</svg>
