<svg width="101" height="101" viewBox="0 0 101 101" fill="none" xmlns="http://www.w3.org/2000/svg">
<g clip-path="url(#clip0_178_15)">
<path d="M44.1875 34.7188C41.5765 34.7193 39.0063 35.3677 36.7074 36.6058C34.4086 37.8439 32.4528 39.6331 31.0155 41.8129C29.5782 43.9928 28.7042 46.4952 28.4719 49.096C28.2396 51.6967 28.6562 54.3144 29.6844 56.7145C30.7126 59.1146 32.3203 61.2221 34.3633 62.8481C36.4063 64.474 38.8209 65.5676 41.3905 66.0309C43.9602 66.4942 46.6046 66.3126 49.0869 65.5025C51.5691 64.6924 53.8115 63.279 55.6132 61.3891C56.0421 60.939 56.5556 60.5777 57.1242 60.326C57.6928 60.0744 58.3054 59.9371 58.927 59.9222C59.5487 59.9072 60.1671 60.0149 60.7472 60.2389C61.3272 60.463 61.8574 60.7991 62.3076 61.2281C62.7577 61.6571 63.1189 62.1706 63.3706 62.7392C63.6223 63.3078 63.7596 63.9204 63.7745 64.542C63.7895 65.1636 63.6818 65.7821 63.4577 66.3622C63.2336 66.9422 62.8975 67.4724 62.4685 67.9225C58.9901 71.572 54.4987 74.0966 49.5729 75.1713C44.647 76.2459 39.5123 75.8213 34.8299 73.9521C30.1475 72.083 26.1318 68.8549 23.3001 64.6836C20.4683 60.5123 18.9501 55.5888 18.941 50.5471C18.9319 45.5055 20.4323 40.5765 23.2489 36.395C26.0656 32.2135 30.0695 28.9709 34.7451 27.0848C39.4208 25.1988 44.5539 24.7556 49.4836 25.8124C54.4133 26.8692 58.9138 29.3775 62.4054 33.0144C63.276 33.9201 63.7511 35.1346 63.7262 36.3907C63.7014 37.6467 63.1786 38.8414 62.2728 39.712C61.3671 40.5826 60.1526 41.0577 58.8966 41.0328C57.6406 41.0079 56.4459 40.4851 55.5753 39.5794C54.1028 38.0434 52.335 36.8209 50.378 35.9856C48.421 35.1503 46.3153 34.7194 44.1875 34.7188Z" fill="white"/>
<path d="M41.5741 0.645278C42.2983 0.222683 43.1218 0 43.9603 0C44.7987 0 45.6222 0.222683 46.3464 0.645278L76.1098 18.0047C77.1947 18.6375 77.9837 19.6754 78.3034 20.89C78.623 22.1046 78.447 23.3964 77.8142 24.4813C77.1813 25.5661 76.1435 26.3552 74.9289 26.6748C73.7143 26.9945 72.4224 26.8185 71.3376 26.1857L43.9603 10.215L9.46875 30.3393V70.6635L43.9603 90.7878L71.3376 74.8172C71.8751 74.4948 72.4713 74.2825 73.0915 74.1924C73.7118 74.1022 74.3437 74.1362 74.9508 74.2922C75.5578 74.4482 76.1278 74.7232 76.6277 75.1013C77.1276 75.4793 77.5475 75.9528 77.863 76.4944C78.1785 77.036 78.3833 77.6348 78.4656 78.2561C78.5479 78.8774 78.506 79.5089 78.3423 80.1139C78.1786 80.719 77.8964 81.2854 77.5121 81.7805C77.1278 82.2757 76.649 82.6895 76.1035 82.9982L46.3464 100.358C45.6222 100.78 44.7987 101.003 43.9603 101.003C43.1218 101.003 42.2983 100.78 41.5741 100.358L2.34825 77.4747C1.63346 77.0576 1.0405 76.4604 0.628474 75.7427C0.216447 75.025 -0.000245022 74.2118 2.07913e-07 73.3842V27.6186C-0.000245022 26.791 0.216447 25.9778 0.628474 25.2601C1.0405 24.5424 1.63346 23.9452 2.34825 23.5281L41.5741 0.645278Z" fill="white"/>
<path d="M76.8862 33.1406C77.7233 33.1406 78.5261 33.4732 79.118 34.0651C79.7099 34.657 80.0425 35.4598 80.0425 36.2969V64.7031C80.0425 65.5402 79.7099 66.343 79.118 66.9349C78.5261 67.5268 77.7233 67.8594 76.8862 67.8594C76.0491 67.8594 75.2463 67.5268 74.6544 66.9349C74.0625 66.343 73.73 65.5402 73.73 64.7031V36.2969C73.73 35.4598 74.0625 34.657 74.6544 34.0651C75.2463 33.4732 76.0491 33.1406 76.8862 33.1406ZM90.395 33.1406C91.2321 33.1406 92.0349 33.4732 92.6268 34.0651C93.2187 34.657 93.5512 35.4598 93.5512 36.2969V64.7031C93.5512 65.5402 93.2187 66.343 92.6268 66.9349C92.0349 67.5268 91.2321 67.8594 90.395 67.8594C89.5579 67.8594 88.7551 67.5268 88.1632 66.9349C87.5713 66.343 87.2387 65.5402 87.2387 64.7031V36.2969C87.2387 35.4598 87.5713 34.657 88.1632 34.0651C88.7551 33.4732 89.5579 33.1406 90.395 33.1406Z" fill="white"/>
<path d="M66.2812 43.7456C66.2812 42.9085 66.6138 42.1057 67.2057 41.5138C67.7976 40.9219 68.6004 40.5894 69.4375 40.5894H97.8438C98.6808 40.5894 99.4836 40.9219 100.076 41.5138C100.667 42.1057 101 42.9085 101 43.7456C101 44.5827 100.667 45.3855 100.076 45.9774C99.4836 46.5693 98.6808 46.9019 97.8438 46.9019H69.4375C68.6004 46.9019 67.7976 46.5693 67.2057 45.9774C66.6138 45.3855 66.2812 44.5827 66.2812 43.7456ZM66.2812 57.2544C66.2812 56.4173 66.6138 55.6145 67.2057 55.0226C67.7976 54.4306 68.6004 54.0981 69.4375 54.0981H97.8438C98.6808 54.0981 99.4836 54.4306 100.076 55.0226C100.667 55.6145 101 56.4173 101 57.2544C101 58.0914 100.667 58.8943 100.076 59.4862C99.4836 60.0781 98.6808 60.4106 97.8438 60.4106H69.4375C68.6004 60.4106 67.7976 60.0781 67.2057 59.4862C66.6138 58.8943 66.2812 58.0914 66.2812 57.2544Z" fill="white"/>
</g>
<defs>
<clipPath id="clip0_178_15">
<rect width="101" height="101" fill="white"/>
</clipPath>
</defs>
</svg>
