<svg width="101" height="101" viewBox="0 0 101 101" fill="none" xmlns="http://www.w3.org/2000/svg">
<path d="M101 0L91.5298 91.1798L50.4993 101L9.46824 91.1798L0 0H101ZM81.917 18.54H50.4624H18.4506L19.9816 29.5508H50.4624H52.1746L50.4624 30.1843L21.0956 41.0564L22.0695 51.8191L50.4624 51.901L65.6802 51.9439L64.706 66.2946L50.4622 69.8593V69.848L50.3455 69.8769L36.5895 66.7901L35.7548 57.8819H35.7092H22.9498H22.9049L24.575 75.0791L50.4626 81.884V81.8718L50.5093 81.884L76.2582 75.203L79.5982 41.0564H50.4626H50.3908L50.4626 41.0287L80.6656 29.5508L81.917 18.54Z" fill="white"/>
</svg>
