<svg width="105" height="105" viewBox="0 0 105 105" fill="none" xmlns="http://www.w3.org/2000/svg">
<path d="M99.0755 0.102783L90.3412 94.7082L52.4994 104.897L14.6569 94.7082L5.9245 0.102783H99.0755ZM81.4755 19.3393H52.4653H22.9413L24.3532 30.7638H52.4653H54.0444L52.4653 31.4211L25.3807 42.7016L26.2789 53.8687L52.4653 53.9536L66.5005 53.9981L65.602 68.888L52.4651 72.5866V72.5749L52.3575 72.6049L39.6705 69.4022L38.9007 60.1593H38.8586H27.0908H27.0494L28.5897 78.0025L52.4655 85.0632V85.0504L52.5086 85.0632L76.2565 78.1311L79.3369 42.7016H52.4655H52.3993L52.4655 42.6729L80.3213 30.7638L81.4755 19.3393Z" fill="white"/>
</svg>
