<svg width="100" height="100" viewBox="0 0 100 100" fill="none" xmlns="http://www.w3.org/2000/svg">
<path d="M76.25 0H23.75C17.4511 0 11.4102 2.70511 6.95621 7.52023C2.50222 12.3354 0 18.8661 0 25.6757V74.3243C0 77.6961 0.614312 81.0349 1.80786 84.15C3.00141 87.2651 4.75082 90.0956 6.95621 92.4798C11.4102 97.2949 17.4511 100 23.75 100H76.25C82.5448 99.9857 88.5781 97.276 93.0292 92.464C97.4803 87.652 99.9868 81.1296 100 74.3243V25.6757C99.9868 18.8705 97.4803 12.348 93.0292 7.53601C88.5781 2.72398 82.5448 0.0142817 76.25 0ZM58 44.973C55.54 46.4897 52.7569 47.2873 49.925 47.2873C47.0931 47.2873 44.31 46.4897 41.85 44.973L7.6 23.7297C8.04287 19.4341 9.93504 15.4657 12.9146 12.5836C15.8941 9.70153 19.7519 8.10811 23.75 8.10811H76.25C80.245 8.11995 84.0968 9.71747 87.0741 12.5973C90.0513 15.4771 91.9466 19.4387 92.4 23.7297L58 44.973Z" fill="white"/>
</svg>
