<svg width="32" height="32" viewBox="0 0 32 32" fill="none" xmlns="http://www.w3.org/2000/svg">
<rect width="32" height="32" rx="16" fill="#341531"/>
<path d="M16.0004 14.1481C14.9776 14.1481 14.1482 14.9775 14.1482 16.0002C14.1482 17.0226 14.9776 17.852 16.0004 17.852C17.0227 17.852 17.8521 17.0226 17.8521 16.0002C17.8521 14.9775 17.0227 14.1481 16.0004 14.1481Z" fill="#D6C3D4"/>
<path d="M14.9804 12.7209C15.0925 13.1803 15.5064 13.5219 16.0003 13.5219C16.4938 13.5219 16.9077 13.1803 17.0203 12.7209L19.0625 5.9724C19.1303 5.71455 19.1664 5.44478 19.1664 5.16642C19.1664 3.41734 17.7491 2 16.0004 2C14.2517 2 12.834 3.41734 12.834 5.16642C12.834 5.44478 12.8705 5.71455 12.9378 5.9724L14.9804 12.7209Z" fill="#D6C3D4"/>
<path d="M17.0201 19.2783C16.9076 18.8189 16.4937 18.4781 16.0002 18.4781C15.5063 18.4781 15.0924 18.8189 14.9803 19.2783L12.9376 26.028C12.8703 26.2855 12.8337 26.5552 12.8337 26.834C12.8337 28.5823 14.2515 30.0001 16.0002 30.0001C17.7488 30.0001 19.1662 28.5823 19.1662 26.834C19.1662 26.5552 19.1301 26.2855 19.0623 26.028L17.0201 19.2783Z" fill="#D6C3D4"/>
<path d="M6.74384 11.0744L12.9601 14.4026C13.365 14.6477 13.8988 14.5973 14.2481 14.2483C14.5971 13.8985 14.6481 13.365 14.403 12.9603L11.0747 6.7439C10.9404 6.51438 10.7754 6.2976 10.5779 6.1005C9.34161 4.8638 7.33709 4.8638 6.10038 6.1005C4.86367 7.33677 4.86367 9.34168 6.10038 10.5779C6.29753 10.7747 6.51431 10.9405 6.74384 11.0744Z" fill="#D6C3D4"/>
<path d="M25.256 20.9253L19.0396 17.5971C18.6352 17.3516 18.1014 17.4028 17.7524 17.7519C17.4026 18.1016 17.3517 18.6351 17.5968 19.0399L20.9255 25.2562C21.0597 25.4861 21.2244 25.7025 21.4218 25.8991C22.6585 27.1359 24.663 27.1359 25.8993 25.8991C27.1364 24.6633 27.136 22.6583 25.8993 21.4221C25.7023 21.2251 25.4863 21.0596 25.256 20.9253Z" fill="#D6C3D4"/>
<path d="M12.7213 17.0202C13.1808 16.9077 13.5219 16.4938 13.5219 16.0003C13.5219 15.5063 13.1807 15.0925 12.7213 14.9799L5.9724 12.9377C5.7146 12.87 5.44478 12.8339 5.16642 12.8339C3.41772 12.8339 2 14.2516 2 16.0003C2 17.749 3.41778 19.1663 5.16642 19.1663C5.44478 19.1663 5.7146 19.1298 5.9724 19.0624L12.7213 17.0202Z" fill="#D6C3D4"/>
<path d="M26.8341 12.8339C26.5553 12.8339 26.2856 12.87 26.0281 12.9377L19.2789 14.98C18.8199 15.0925 18.4783 15.5064 18.4783 16.0003C18.4783 16.4938 18.8199 16.9077 19.2789 17.0203L26.0281 19.0625C26.2856 19.1299 26.5553 19.1664 26.8341 19.1664C28.5828 19.1664 30.0002 17.7491 30.0002 16.0004C30.0002 14.2512 28.5829 12.8339 26.8341 12.8339Z" fill="#D6C3D4"/>
<path d="M14.2481 17.7519C13.8987 17.4028 13.3649 17.3516 12.9601 17.5971L6.74378 20.9253C6.51426 21.0596 6.29748 21.2251 6.10038 21.4221C4.86367 22.6584 4.86367 24.6633 6.10038 25.8992C7.33709 27.1359 9.34161 27.1359 10.5779 25.8992C10.7745 25.7025 10.9404 25.4862 11.0743 25.2563L14.4029 19.0399C14.648 18.6351 14.5971 18.1016 14.2481 17.7519Z" fill="#D6C3D4"/>
<path d="M17.7524 14.2474C18.1014 14.5972 18.6352 14.6477 19.0396 14.4026L25.256 11.0748C25.4863 10.9405 25.7023 10.7754 25.8993 10.5779C27.136 9.34168 27.1364 7.33677 25.8993 6.1005C24.663 4.8638 22.6581 4.8638 21.4218 6.1005C21.2243 6.2976 21.0597 6.51438 20.9255 6.7439L17.5968 12.9602C17.3517 13.365 17.4026 13.8984 17.7524 14.2474Z" fill="#D6C3D4"/>
</svg>
