<svg width="101" height="101" viewBox="0 0 101 101" fill="none" xmlns="http://www.w3.org/2000/svg">
<path fill-rule="evenodd" clip-rule="evenodd" d="M36.4736 5.26032C32.8249 5.25761 29.2701 6.41646 26.324 8.56902C23.3779 10.7216 21.1935 13.7561 20.0871 17.233C18.9808 20.7099 19.01 24.4488 20.1705 27.908C21.331 31.3673 23.5626 34.3673 26.542 36.4735C24.2993 38.0608 22.4702 40.1631 21.2085 42.6038C19.9468 45.0445 19.2892 47.7524 19.291 50.4999C19.291 56.2906 22.1569 61.4163 26.5504 64.5263C24.1435 66.23 22.2156 68.5245 20.9522 71.189C19.6888 73.8534 19.1323 76.7982 19.3364 79.74C19.5405 82.6818 20.4982 85.5215 22.1175 87.986C23.7367 90.4505 25.9629 92.4568 28.582 93.8118C31.2011 95.1669 34.1248 95.8251 37.0719 95.7232C40.0189 95.6212 42.8902 94.7626 45.4093 93.2298C47.9285 91.6969 50.0108 89.5416 51.4559 86.9711C52.9009 84.4006 53.6601 81.5015 53.6605 78.5527V63.8067C55.448 65.2549 57.5083 66.3294 59.7189 66.9664C61.9296 67.6035 64.2457 67.7901 66.5298 67.5152C68.8139 67.2403 71.0196 66.5095 73.016 65.3662C75.0124 64.2229 76.7589 62.6903 78.1519 60.8593C79.5448 59.0283 80.5559 56.9363 81.1252 54.7072C81.6944 52.4781 81.8102 50.1574 81.4657 47.8827C81.1212 45.608 80.3234 43.4257 79.1197 41.4651C77.9159 39.5046 76.3307 37.8057 74.458 36.4693C77.4374 34.3631 79.669 31.363 80.8295 27.9038C81.99 24.4446 82.0192 20.7057 80.9128 17.2288C79.8065 13.7519 77.6221 10.7174 74.676 8.56481C71.7299 6.41225 68.1751 5.2534 64.5264 5.25611L36.4736 5.26032ZM47.3437 61.37H36.4736C35.0461 61.37 33.6326 61.0889 32.3138 60.5426C30.995 59.9963 29.7967 59.1956 28.7873 58.1862C27.7779 57.1769 26.9772 55.9785 26.4309 54.6597C25.8847 53.3409 25.6035 51.9274 25.6035 50.4999C25.6035 49.0724 25.8847 47.6589 26.4309 46.3401C26.9772 45.0213 27.7779 43.8229 28.7873 42.8136C29.7967 41.8042 30.995 41.0035 32.3138 40.4572C33.6326 39.9109 35.0461 39.6298 36.4736 39.6298H47.3437V61.37ZM36.4736 33.3173H47.3437V11.5728H36.4736C33.5901 11.5728 30.8247 12.7183 28.7858 14.7572C26.7469 16.7962 25.6014 19.5616 25.6014 22.445C25.6014 25.3285 26.7469 28.0939 28.7858 30.1329C30.8247 32.1718 33.5901 33.3173 36.4736 33.3173ZM75.4007 22.4429C75.4018 25.3244 74.2588 28.0885 72.2229 30.1275C70.1869 32.1666 67.4247 33.3139 64.5432 33.3173H53.6562V11.5728H64.5306C65.9581 11.5728 67.3716 11.854 68.6904 12.4003C70.0092 12.9465 71.2075 13.7472 72.2169 14.7566C73.2263 15.766 74.027 16.9643 74.5733 18.2831C75.1195 19.6019 75.4007 21.0155 75.4007 22.4429ZM53.6562 50.4873C53.6596 47.6087 54.8046 44.849 56.84 42.8136C58.8755 40.7781 61.6352 39.6331 64.5137 39.6298H64.539C66.6878 39.6323 68.7877 40.2716 70.5734 41.467C72.359 42.6624 73.7503 44.3602 74.5715 46.3459C75.3926 48.3317 75.6068 50.5162 75.187 52.6237C74.7672 54.7311 73.7322 56.6668 72.2127 58.1862C70.6932 59.7057 68.7575 60.7407 66.6501 61.1605C64.5427 61.5804 62.3581 61.3662 60.3724 60.545C58.3866 59.7238 56.6888 58.3325 55.4935 56.5469C54.2981 54.7612 53.6587 52.6614 53.6562 50.5125V50.4873ZM36.4736 67.6825C34.3239 67.6825 32.2224 68.3199 30.4349 69.5142C28.6474 70.7084 27.2542 72.4059 26.4313 74.3919C25.6085 76.3779 25.393 78.5633 25.8121 80.6718C26.2311 82.7802 27.266 84.7171 28.7858 86.2375C30.3056 87.7579 32.2421 88.7935 34.3504 89.2134C36.4587 89.6333 38.6442 89.4186 40.6305 88.5965C42.6169 87.7745 44.3148 86.3819 45.5098 84.5948C46.7047 82.8078 47.3429 80.7066 47.3437 78.5569V67.6825H36.4736Z" fill="white"/>
</svg>
