<svg width="80" height="59" viewBox="0 0 80 59" fill="none" xmlns="http://www.w3.org/2000/svg">
<g clip-path="url(#clip0_178_3)">
<path d="M37.8201 46.973L38.8631 46.2933L38.6131 46.8206C33.8319 56.9766 21.6791 61.3476 11.5231 56.5667L9.82778 55.7698L10.6247 54.0745C11.4293 52.3636 12.4645 50.8089 13.6677 49.4143C16.7654 50.6291 20.07 51.262 23.4021 51.262C28.3591 51.262 33.3669 49.8753 37.8161 46.969L37.8201 46.973ZM66.2541 49.4652C64.9103 49.9886 63.5158 50.4066 62.0744 50.7113C60.2463 51.0941 58.4103 51.2855 56.5822 51.2855C51.5041 51.2855 46.5312 49.8167 42.1802 46.9769L40.9732 46.1878L41.274 46.8246C46.0552 56.9766 58.208 61.3516 68.364 56.5707L70.0593 55.7738L69.2624 54.0785C68.4655 52.3871 67.446 50.8441 66.2585 49.4652L66.2541 49.4652ZM19.0941 35.0822C18.1097 33.8752 17.2464 32.5978 16.4964 31.2658C11.7425 31.2853 6.94168 32.6213 2.67238 35.4064L0.617676 36.7462L1.95748 38.797C9.66058 50.598 25.5275 53.93 37.3285 46.2267L39.3558 44.9025L36.9222 44.6564C29.8949 43.9494 23.5632 40.547 19.0902 35.0783L19.0941 35.0822ZM42.5901 43.0588L41.7463 43.9025L42.9846 43.7775C49.7776 43.0939 55.8946 39.8048 60.2146 34.5197C64.5349 29.2345 66.5349 22.5817 65.8513 15.7897L65.6052 13.3483L63.1638 13.5944C58.57 14.0554 54.3865 15.7194 50.8788 18.235C52.1054 27.0397 49.3436 36.301 42.5858 43.059L42.5901 43.0588ZM37.0159 43.7775L38.2542 43.9025L37.4104 43.0588C30.6526 36.301 27.8909 27.0428 29.1174 18.2388C25.6096 15.7232 21.426 14.0591 16.8324 13.5982L14.3949 13.3521L14.1488 15.7896C13.4652 22.5826 15.4691 29.2346 19.7894 34.5196C24.1097 39.8048 30.2274 43.0938 37.0194 43.7774L37.0159 43.7775ZM77.3279 35.4064C73.0584 32.6212 68.2576 31.2853 63.5039 31.2658C62.7539 32.5978 61.8945 33.8752 60.9062 35.0822C56.4374 40.551 50.1012 43.9533 43.0742 44.6603L40.6406 44.9064L42.6679 46.2306C48.3827 49.9611 55.2109 51.2462 61.8949 49.84C68.5746 48.4377 74.3089 44.5158 78.0399 38.801L79.3797 36.7502L77.3289 35.4104L77.3279 35.4064ZM50.2929 22.3124C50.2929 14.7147 47.332 7.57042 41.9609 2.19942L40 0.238525L38.0391 2.19942C26.9491 13.2894 26.9491 31.3364 38.0391 42.4294L40 44.3903L41.9609 42.4294C47.332 37.0583 50.2929 29.9134 50.2929 22.3164V22.3124Z" fill="white"/>
</g>
<defs>
<clipPath id="clip0_178_3">
<rect width="80" height="59" fill="white"/>
</clipPath>
</defs>
</svg>
