<svg width="123" height="123" viewBox="0 0 123 123" fill="none" xmlns="http://www.w3.org/2000/svg">
<path fill-rule="evenodd" clip-rule="evenodd" d="M69.585 14.783C65.12 10.3177 57.8799 10.3177 53.415 14.783L49.5755 18.6224L58.5385 27.5851C59.483 27.3326 60.4755 27.1979 61.5 27.1979C67.815 27.1979 72.934 32.3171 72.934 38.6319C72.934 39.6562 72.7991 40.649 72.5469 41.5935L84.2651 53.3115C85.2095 53.0594 86.202 52.9244 87.2265 52.9244C93.5415 52.9244 98.6605 58.0434 98.6605 64.3585C98.6605 70.6735 93.5415 75.7925 87.2265 75.7925C80.9115 75.7925 75.7925 70.6735 75.7925 64.3585C75.7925 63.334 75.9274 62.3415 76.1795 61.397L67.217 52.4339V80.1809C70.6346 82.1578 72.934 85.8527 72.934 90.085C72.934 96.4 67.815 101.519 61.5 101.519C55.1849 101.519 50.0659 96.4 50.0659 90.085C50.0659 85.8527 52.3653 82.1578 55.7829 80.1809V48.5363C52.3653 46.5593 50.0659 42.8641 50.0659 38.6319C50.0659 37.6076 50.2009 36.6148 50.453 35.6703L41.4904 26.7074L14.783 53.415C10.3177 57.8799 10.3177 65.12 14.783 69.585L53.415 108.217C57.8799 112.682 65.12 112.682 69.585 108.217L108.217 69.585C112.682 65.12 112.682 57.8799 108.217 53.415L69.585 14.783ZM45.3298 6.69787C54.2605 -2.23265 68.7394 -2.23262 77.6699 6.69793L116.302 45.3298C125.233 54.2605 125.233 68.7394 116.302 77.6699L77.6699 116.302C68.7394 125.233 54.2605 125.233 45.3298 116.302L6.69787 77.6699C-2.23265 68.7394 -2.23262 54.2605 6.69793 45.3298L45.3298 6.69787Z" fill="white"/>
</svg>
