<svg width="51" height="48" viewBox="0 0 51 48" fill="none" xmlns="http://www.w3.org/2000/svg">
<g clip-path="url(#clip0_7_31)">
<path d="M25.5012 -0.277771C12.52 -0.277771 2.00592 10.3327 2.00592 23.4327C2.0031 28.4099 3.55332 33.2617 6.43668 37.2997C9.32005 41.3377 13.3901 44.357 18.0696 45.9293C19.2444 46.1355 19.6861 45.4242 19.6861 44.8006C19.6861 44.2387 19.6556 42.3727 19.6556 40.3857C13.7535 41.4835 12.2264 38.9347 11.7565 37.5998C11.491 36.9169 10.3467 34.8138 9.34819 34.2495C8.52586 33.8061 7.35109 32.7083 9.31764 32.6798C11.1691 32.649 12.4895 34.3988 12.9312 35.1101C15.0458 38.6952 18.4221 37.6875 19.773 37.0663C19.9798 35.5251 20.5954 34.4889 21.272 33.8962C16.0443 33.3034 10.5817 31.2572 10.5817 22.1879C10.5817 19.6082 11.491 17.4767 12.99 15.8169C12.755 15.2242 11.9327 12.7938 13.2249 9.53363C13.2249 9.53363 15.1915 8.91005 19.6861 11.9616C21.5989 11.4267 23.5751 11.1578 25.5599 11.1625C27.557 11.1625 29.5541 11.4281 31.4337 11.9616C35.9284 8.87922 37.8949 9.53363 37.8949 9.53363C39.1871 12.7938 38.3648 15.2242 38.1299 15.8169C39.6265 17.4767 40.5381 19.5798 40.5381 22.1879C40.5381 31.288 35.0473 33.3034 29.8196 33.8962C30.6701 34.6359 31.4055 36.0586 31.4055 38.2826C31.4055 41.4527 31.375 44.0016 31.375 44.803C31.375 45.4242 31.8167 46.164 32.9915 45.9269C37.6549 44.3374 41.7071 41.3122 44.5777 37.2771C47.4483 33.242 48.9929 28.4001 48.9941 23.4327C48.9941 10.3327 38.4799 -0.277771 25.4988 -0.277771" fill="white"/>
</g>
<defs>
<clipPath id="clip0_7_31">
<rect width="51" height="48" fill="white"/>
</clipPath>
</defs>
</svg>
