<svg width="100" height="98" viewBox="0 0 100 98" fill="none" xmlns="http://www.w3.org/2000/svg">
<path d="M50.0025 0C22.3761 0 8.22546e-06 22.4827 8.22546e-06 50.2406C-0.00601236 60.7869 3.29316 71.0673 9.42953 79.6236C15.5659 88.1798 24.2279 94.5775 34.1867 97.9089C36.6868 98.346 37.6269 96.8388 37.6269 95.5175C37.6269 94.3268 37.5619 90.3728 37.5619 86.1627C25.0013 88.4888 21.7511 83.088 20.751 80.2594C20.186 78.8125 17.7509 74.3561 15.6258 73.1604C13.8757 72.2209 11.3756 69.8948 15.5608 69.8345C19.501 69.7692 22.3111 73.4769 23.2512 74.9841C27.7514 82.5805 34.9367 80.4453 37.8119 79.129C38.2519 75.8633 39.562 73.6678 41.0021 72.4118C29.8765 71.1558 18.2509 66.82 18.2509 47.603C18.2509 42.1368 20.186 37.6202 23.3762 34.1033C22.8761 32.8473 21.1261 27.6977 23.8762 20.7896C23.8762 20.7896 28.0614 19.4682 37.6269 25.9342C41.6976 24.8008 45.9034 24.2311 50.1275 24.2411C54.3777 24.2411 58.6279 24.8038 62.6281 25.9342C72.1936 19.4029 76.3788 20.7896 76.3788 20.7896C79.129 27.6977 77.3789 32.8473 76.8788 34.1033C80.064 37.6202 82.0041 42.0765 82.0041 47.603C82.0041 66.8853 70.3185 71.1558 59.193 72.4118C61.003 73.9793 62.5681 76.9938 62.5681 81.7063C62.5681 88.4235 62.5031 93.8244 62.5031 95.5225C62.5031 96.8388 63.4432 98.4063 65.9433 97.9039C75.868 94.5359 84.4918 88.1258 90.6011 79.5757C96.7103 71.0257 99.9975 60.766 100 50.2406C100 22.4827 77.6239 0 49.9975 0" fill="white"/>
</svg>
