<svg width="101" height="101" viewBox="0 0 101 101" fill="none" xmlns="http://www.w3.org/2000/svg">
<g clip-path="url(#clip0_68_195)">
<rect width="101" height="101" fill="#DBDBDB"/>
<path fill-rule="evenodd" clip-rule="evenodd" d="M77.4064 93.0823C68.5942 93.0823 62.8977 88.881 60.1202 83.3866L67.8467 78.9112C69.8819 82.2341 72.523 84.6738 77.2044 84.6738C81.1333 84.6738 83.6431 82.708 83.6431 79.9961C83.6431 75.9157 78.1992 74.3214 74.3562 72.6751C67.5084 69.7613 62.9633 66.1 62.9633 58.3684C62.9633 51.253 68.3871 45.8297 76.8661 45.8297C82.8958 45.8297 87.2387 47.9302 90.3546 53.4195L82.9664 58.1662C81.3403 55.2524 79.5779 54.1001 76.8661 54.1001C74.0835 54.1001 72.3211 55.8634 72.3211 58.1662C72.3211 61.0144 74.0836 62.1664 78.1539 63.9289C86.6833 67.5851 93.1371 70.4574 93.1371 79.8605C93.1371 88.4051 86.4257 93.0823 77.4064 93.0823ZM55.55 78.7756C55.55 88.6079 49.495 93.8047 41.0867 93.8047C33.4915 93.8047 28.9415 90.9 26.7044 85.85H26.6287H26.5933H26.5731L34.2945 80.4523C35.7842 83.0935 37.1276 84.9672 40.3798 84.9672C43.5007 84.9672 45.45 83.3868 45.45 78.6449V45.45H55.55V78.7756ZM0 101H101V0H0V101Z" fill="white"/>
</g>
<defs>
<clipPath id="clip0_68_195">
<rect width="101" height="101" fill="white"/>
</clipPath>
</defs>
</svg>
