<svg width="102" height="101" viewBox="0 0 102 101" fill="none" xmlns="http://www.w3.org/2000/svg">
<g clip-path="url(#clip0_68_195)">
<rect width="102" height="101" fill="#DBDBDB"/>
<path fill-rule="evenodd" clip-rule="evenodd" d="M78.1728 93.0823C69.2733 93.0823 63.5205 88.881 60.7155 83.3866L68.5185 78.9112C70.5738 82.2341 73.2411 84.6738 77.9688 84.6738C81.9366 84.6738 84.4712 82.708 84.4712 79.9961C84.4712 75.9157 78.9735 74.3214 75.0924 72.6751C68.1768 69.7613 63.5867 66.1 63.5867 58.3684C63.5867 51.253 69.0642 45.8297 77.6271 45.8297C83.7165 45.8297 88.1025 47.9302 91.2492 53.4195L83.7878 58.1662C82.1456 55.2524 80.3658 54.1001 77.6271 54.1001C74.817 54.1001 73.0372 55.8634 73.0372 58.1662C73.0372 61.0144 74.8171 62.1664 78.9277 63.9289C87.5416 67.5851 94.0593 70.4574 94.0593 79.8605C94.0593 88.4051 87.2814 93.0823 78.1728 93.0823ZM56.1 78.7756C56.1 88.6079 49.985 93.8047 41.4935 93.8047C33.8231 93.8047 29.2281 90.9 26.9688 85.85H26.8924H26.8566H26.8362L34.634 80.4523C36.1385 83.0935 37.4952 84.9672 40.7796 84.9672C43.9314 84.9672 45.9 83.3868 45.9 78.6449V45.45H56.1V78.7756ZM0 101H102V0H0V101Z" fill="white"/>
</g>
<defs>
<clipPath id="clip0_68_195">
<rect width="102" height="101" fill="white"/>
</clipPath>
</defs>
</svg>
