<svg width="114" height="113" viewBox="0 0 114 113" fill="none" xmlns="http://www.w3.org/2000/svg">
<g clip-path="url(#clip0_68_200)">
<path d="M54.053 0.721547C55.7168 -0.240516 57.7743 -0.240516 59.4381 0.721547L103.715 26.3231C105.357 27.2723 106.366 29.0145 106.366 30.8984V82.1016C106.366 83.9858 105.357 85.7275 103.715 86.6767L59.4381 112.278C57.7743 113.241 55.7168 113.241 54.053 112.278L42.9838 105.878C40.4345 104.404 39.5735 101.16 41.0605 98.6335C42.5476 96.1072 45.8197 95.2533 48.3689 96.7273L56.7456 101.571L95.6788 79.059V33.9408L56.7456 11.4291L17.8125 33.9408V79.059L25.7697 83.6603C28.222 84.44 31.251 84.6306 33.386 83.6956C34.3765 83.2619 35.271 82.5557 35.979 81.2943C36.7241 79.9666 37.4062 77.7567 37.4062 74.1562V37.0781C37.4062 34.1528 39.7988 31.7812 42.75 31.7812C45.7012 31.7812 48.0937 34.1528 48.0937 37.0781V74.1562C48.0937 79.0308 47.1749 83.1369 45.3183 86.4443C43.4248 89.818 40.717 92.0667 37.7049 93.386C31.96 95.9017 25.616 94.8706 21.7312 93.487C21.4239 93.3775 21.1274 93.2405 20.8454 93.0774L9.77621 86.6767C8.13447 85.7275 7.125 83.9858 7.125 82.1016V30.8984C7.125 29.0145 8.13447 27.2723 9.77621 26.3231L54.053 0.721547ZM58.7567 37.3128C61.5841 33.9763 66.0002 31.7812 71.9924 31.7812C77.5535 31.7812 81.7893 33.6709 84.6557 36.6766C86.6827 38.8026 86.588 42.155 84.4426 44.1645C82.298 46.1741 78.9158 46.0796 76.8887 43.9536C76.2646 43.2993 74.9564 42.375 71.9924 42.375C68.8405 42.375 67.5416 43.4169 66.9402 44.1266C66.1638 45.0428 65.9062 46.2017 65.9062 46.7891C65.9062 47.3764 66.1638 48.5353 66.9402 49.4515C67.5416 50.1612 68.8405 51.2031 71.9924 51.2031C72.5197 51.2031 73.0291 51.2789 73.5108 51.4201C77.9247 52.0507 81.2884 54.0129 83.5948 56.7347C86.2474 59.8648 87.133 63.5613 87.133 66.2109C87.133 68.8606 86.2474 72.5573 83.5948 75.6874C80.7676 79.0237 76.3515 81.2188 70.3594 81.2188C64.7983 81.2188 60.5622 79.3288 57.696 76.3237C55.6687 74.1972 55.764 70.8446 57.9088 68.8355C60.0536 66.8259 63.4357 66.9204 65.463 69.0464C66.0869 69.7007 67.3954 70.625 70.3594 70.625C73.5115 70.625 74.8104 69.5831 75.4117 68.8734C76.1876 67.9572 76.4455 66.7983 76.4455 66.2109C76.4455 65.6236 76.1876 64.4647 75.4117 63.5485C74.8104 62.8388 73.5115 61.7969 70.3594 61.7969C69.8319 61.7969 69.3222 61.7211 68.8409 61.5799C64.4269 60.9493 61.0632 58.9871 58.7567 56.2653C56.1042 53.1352 55.2187 49.4387 55.2187 46.7891C55.2187 44.1394 56.1042 40.4429 58.7567 37.3128Z" fill="white"/>
</g>
<defs>
<clipPath id="clip0_68_200">
<rect width="114" height="113" fill="white"/>
</clipPath>
</defs>
</svg>
