<svg width="101" height="101" viewBox="0 0 101 101" fill="none" xmlns="http://www.w3.org/2000/svg">
<path d="M17.8849 1.26245C7.99557 1.26245 0 9.25881 0 19.1489V81.851C0 91.7411 7.99557 99.7375 17.8849 99.7375H83.1151C93.0044 99.7375 101 91.7411 101 81.851V19.1489C101 9.25881 93.0044 1.26245 83.1151 1.26245H17.8849ZM36.1919 26.3026C39.6425 26.3026 42.5044 26.7223 44.8606 27.6061C46.9733 28.324 48.8997 29.5032 50.5 31.0582C51.8558 32.4187 52.9036 34.0545 53.5726 35.855C54.2039 37.6225 54.5392 39.4318 54.5392 41.3255C54.5392 44.9447 53.6975 47.9326 52.0142 50.2893C50.3319 52.6454 47.9758 54.4137 45.2401 55.4237C42.3782 56.4763 39.2219 56.8543 35.7714 56.8543C34.7614 56.8543 34.0867 56.8543 33.6661 56.8125C33.2456 56.7706 32.6561 56.7706 31.8568 56.7706V70.2794C31.8986 70.5737 31.6887 70.827 31.3944 70.8688H23.23C22.8939 70.8688 22.7266 70.6992 22.7266 70.3204V27.0175C22.7266 26.7231 22.8528 26.5535 23.1471 26.5535C23.8628 26.5535 24.5359 26.5535 25.5033 26.5124C26.5133 26.4698 27.5651 26.4714 28.7014 26.4288C29.8376 26.387 31.0583 26.3862 32.3626 26.3444C33.6677 26.3018 34.9294 26.3026 36.1919 26.3026ZM37.1309 34.5909C36.916 34.5868 36.7011 34.5873 36.4863 34.5925C35.3926 34.5925 34.4244 34.5932 33.6243 34.6359C32.7832 34.5932 32.1945 34.6351 31.9002 34.6769V48.8169C32.4889 48.8595 33.0349 48.9005 33.5399 48.9005H35.7714C37.4126 48.9005 39.0539 48.648 40.6107 48.143C41.9576 47.7643 43.1357 46.9642 44.0613 45.9123C44.945 44.8597 45.3664 43.43 45.3664 41.578C45.4051 40.2633 45.0696 38.9646 44.399 37.8331C43.6833 36.7395 42.6725 35.8968 41.4518 35.4344C40.0891 34.882 38.6301 34.6201 37.1309 34.5909ZM72.4257 36.7395C74.1514 36.7395 75.9189 36.8642 77.6438 37.1167C78.9063 37.2847 80.1261 37.6232 81.2624 38.0864C81.4313 38.1282 81.5993 38.2955 81.683 38.4636C81.7256 38.6317 81.7682 38.8005 81.7682 38.9686V45.8287C81.7686 45.9104 81.7498 45.991 81.7134 46.064C81.6769 46.1371 81.6238 46.2005 81.5583 46.2493C81.1795 46.3337 80.9689 46.3337 80.8008 46.2493C79.5383 45.5762 78.1906 45.1138 76.7592 44.8195C75.2024 44.4826 73.6456 44.2711 72.0469 44.2711C71.205 44.2285 70.3205 44.3563 69.5211 44.5662C68.9735 44.6925 68.5111 44.9876 68.2168 45.4081C68.0069 45.7451 67.8807 46.1656 67.8807 46.5444C67.8807 46.9231 68.0495 47.3019 68.302 47.638C68.6808 48.1012 69.185 48.4807 69.7318 48.7758C70.7077 49.2802 71.7047 49.7428 72.72 50.1622C74.9925 50.9197 77.1806 51.9731 79.2006 53.2356C80.5893 54.1194 81.7256 55.2982 82.5249 56.7288C83.2019 58.071 83.5349 59.5604 83.4939 61.0631C83.528 63.0524 82.9549 65.0048 81.851 66.66C80.6776 68.3397 79.0401 69.641 77.1388 70.4048C75.0761 71.2886 72.5511 71.7518 69.5211 71.7518C67.5848 71.7518 65.6926 71.5837 63.7989 71.205C62.3146 70.9485 60.8711 70.4956 59.5064 69.858C59.212 69.69 59.0006 69.3948 59.0424 69.0579V61.7362C59.0424 61.61 59.0842 61.4411 59.2105 61.3575C59.3367 61.273 59.463 61.3164 59.5892 61.4001C61.2102 62.3564 62.9713 63.0524 64.8081 63.4627C66.4075 63.8832 68.0914 64.0931 69.7752 64.0931C71.3739 64.0931 72.5101 63.8825 73.2676 63.5037C73.9407 63.2094 74.4031 62.4937 74.4031 61.7362C74.4031 61.1476 74.0669 60.5992 73.3931 60.0516C72.72 59.5047 71.3313 58.8743 69.2694 58.075C67.1537 57.3298 65.1446 56.3112 63.2931 55.045C61.9744 54.1053 60.8818 52.8834 60.095 51.4681C59.4234 50.139 59.0911 48.6644 59.1276 47.1756C59.1276 45.3663 59.6318 43.6406 60.5574 42.0838C61.6092 40.4007 63.1676 39.0538 64.9777 38.2127C66.9551 37.2027 69.4367 36.7395 72.4257 36.7395Z" fill="white"/>
</svg>
