<svg width="101" height="101" viewBox="0 0 101 101" fill="none" xmlns="http://www.w3.org/2000/svg">
<g clip-path="url(#clip0_68_222)">
<path fill-rule="evenodd" clip-rule="evenodd" d="M64.3571 93.2129C61.923 93.2129 59.9536 91.2336 59.9536 88.7868C59.9536 86.34 61.923 84.3656 64.3571 84.3656C66.7912 84.3656 68.7608 86.34 68.7608 88.7868C68.7608 91.2336 66.7912 93.2129 64.3571 93.2129ZM50.8636 101C76.5075 101 74.9067 89.8224 74.9067 89.8224L74.8763 78.2429H50.4091V74.7661H84.5926C84.5926 74.7661 101 76.6395 101 50.6332C101 24.6268 86.6833 25.5434 86.6833 25.5434H78.1335V37.6161C78.1335 37.6161 78.5932 52.0066 64.0441 52.0066H39.7738C39.7738 52.0066 26.1388 51.7902 26.1388 65.2579V87.5218C26.1388 87.5218 24.0683 101 50.8636 101ZM36.6478 7.78706C39.0819 7.78706 41.0464 9.76638 41.0464 12.2132C41.0464 14.66 39.0819 16.6344 36.6478 16.6344C34.2137 16.6344 32.2443 14.66 32.2443 12.2132C32.2443 9.76638 34.2137 7.78706 36.6478 7.78706ZM50.1364 0C24.4976 0 26.0984 11.1776 26.0984 11.1776L26.1288 22.7571H50.596V26.2339H16.4074C16.4074 26.2339 0 24.3605 0 50.3668C0 76.3732 14.3218 75.4566 14.3218 75.4566H22.8665V63.3839C22.8665 63.3839 22.4069 48.9934 36.961 48.9934H61.2262C61.2262 48.9934 74.8612 49.2098 74.8612 35.7421V13.4782C74.8612 13.4782 76.9317 0 50.1364 0Z" fill="white"/>
</g>
<defs>
<clipPath id="clip0_68_222">
<rect width="101" height="101" fill="white"/>
</clipPath>
</defs>
</svg>
