<svg width="116" height="115" viewBox="0 0 116 115" fill="none" xmlns="http://www.w3.org/2000/svg">
<g clip-path="url(#clip0_68_222)">
<path fill-rule="evenodd" clip-rule="evenodd" d="M73.9151 106.134C71.1195 106.134 68.8577 103.88 68.8577 101.094C68.8577 98.3079 71.1195 96.0598 73.9151 96.0598C76.7107 96.0598 78.9728 98.3079 78.9728 101.094C78.9728 103.88 76.7107 106.134 73.9151 106.134ZM58.4175 115C87.8699 115 86.0314 102.273 86.0314 102.273L85.9966 89.0885H57.8956V85.1298H97.1558C97.1558 85.1298 116 87.2628 116 57.6516C116 28.0404 99.5571 29.0841 99.5571 29.0841H89.7375V42.8302C89.7375 42.8302 90.2654 59.2155 73.5556 59.2155H45.6808C45.6808 59.2155 30.0208 58.9691 30.0208 74.3036V99.6536C30.0208 99.6536 27.6427 115 58.4175 115ZM42.0905 8.86646C44.8861 8.86646 47.1423 11.1201 47.1423 13.9061C47.1423 16.6921 44.8861 18.9402 42.0905 18.9402C39.2949 18.9402 37.0331 16.6921 37.0331 13.9061C37.0331 11.1201 39.2949 8.86646 42.0905 8.86646ZM57.5825 0C28.1359 0 29.9744 12.7269 29.9744 12.7269L30.0093 25.9115H58.1103V29.8702H18.8442C18.8442 29.8702 0 27.7372 0 57.3484C0 86.9596 16.4488 85.9159 16.4488 85.9159H26.2625V72.1698C26.2625 72.1698 25.7346 55.7845 42.4502 55.7845H70.3192C70.3192 55.7845 85.9792 56.0309 85.9792 40.6964V15.3464C85.9792 15.3464 88.3573 0 57.5825 0Z" fill="white"/>
</g>
<defs>
<clipPath id="clip0_68_222">
<rect width="116" height="115" fill="white"/>
</clipPath>
</defs>
</svg>
