<svg width="757" height="680" viewBox="0 0 757 680" fill="none" xmlns="http://www.w3.org/2000/svg">
<path d="M472.135 680H249.527C220.521 680 196.923 656.385 196.923 627.358V52.6419C196.923 23.6149 220.521 0 249.527 0H472.135C501.141 0 524.739 23.6149 524.739 52.6419V627.358C524.739 656.385 501.141 680 472.135 680Z" fill="#2F2E41"/>
<path d="M472.362 665.793H249.3C227.535 665.793 209.829 648.073 209.829 626.294V50.4776C209.829 28.6978 227.535 10.9781 249.3 10.9781H472.362C494.126 10.9781 511.833 28.6978 511.833 50.4776V626.294C511.833 648.073 494.126 665.793 472.362 665.793Z" fill="white"/>
<path d="M395.677 48.4331H324.694C316.51 48.4331 309.851 41.7704 309.851 33.5803C309.851 25.3902 316.51 18.7275 324.694 18.7275H395.677C403.862 18.7275 410.519 25.3902 410.519 33.5803C410.519 41.7704 403.862 48.4331 395.677 48.4331Z" fill="#2F2E41"/>
<path d="M450.028 209.591H263.976C256.837 209.591 251.029 203.778 251.029 196.635V122.637C251.029 115.493 256.837 109.682 263.976 109.682H450.028C457.167 109.682 462.974 115.493 462.974 122.637V196.635C462.974 203.778 457.167 209.591 450.028 209.591Z" fill="#5F285A"/>
<path d="M450.028 436.201H263.976C256.837 436.201 251.029 430.389 251.029 423.245V349.247C251.029 342.103 256.837 336.292 263.976 336.292H450.028C457.167 336.292 462.974 342.103 462.974 349.247V423.245C462.974 430.389 457.167 436.201 450.028 436.201Z" fill="#D8D8D8"/>
<path d="M448.923 321.575H375.78C368.266 321.575 362.154 315.458 362.154 307.939V236.975C362.154 229.457 368.266 223.34 375.78 223.34H448.923C456.436 223.34 462.549 229.457 462.549 236.975V307.939C462.549 315.458 456.436 321.575 448.923 321.575Z" fill="#D8D8D8"/>
<path d="M337.373 321.575H264.23C256.716 321.575 250.604 315.458 250.604 307.939V236.975C250.604 229.457 256.716 223.34 264.23 223.34H337.373C344.887 223.34 350.999 229.457 350.999 236.975V307.939C350.999 315.458 344.887 321.575 337.373 321.575Z" fill="#D8D8D8"/>
<path d="M556.803 166.28L552.107 178.035C552.107 178.035 547.779 194.489 552.854 201.053C557.918 207.606 559.045 257.85 553.601 261.557C548.158 265.274 622.595 227.152 622.595 227.152C622.595 227.152 593.536 159.716 593.046 159.47C592.555 159.225 573.513 153.286 573.513 153.286L556.825 166.28H556.803Z" fill="#683C33"/>
<path d="M605.271 224.384L580.329 232.588V196.666H602.962L605.271 224.384Z" fill="#F2A2A5"/>
<path d="M525.692 428.344C524.342 436.571 518.854 442.476 513.443 441.527C508.033 440.579 504.731 433.133 506.092 424.894C506.583 421.601 507.888 418.476 509.896 415.808L516.076 381.012L532.898 384.54L525.011 418.465C526.049 421.679 526.283 425.062 525.692 428.344Z" fill="#F2A2A5"/>
<path d="M595.901 626.578H572.543V659.743H595.901V626.578Z" fill="#F2A2A5"/>
<path d="M549.786 679.825C547.332 679.825 545.146 679.77 543.495 679.613C537.293 679.044 531.369 674.456 528.391 671.777C527.052 670.571 526.629 668.651 527.32 666.999C527.822 665.816 528.815 664.923 530.053 664.577L546.451 659.888L573 641.96L573.301 642.496C573.413 642.697 576.023 647.397 576.893 650.567C577.228 651.773 577.138 652.777 576.636 653.559C576.291 654.094 575.8 654.407 575.409 654.586C575.889 655.088 577.395 656.115 582.035 656.852C588.806 657.923 590.234 650.902 590.29 650.612L590.335 650.377L590.536 650.243C593.759 648.167 595.745 647.218 596.425 647.419C596.849 647.542 597.563 647.765 599.493 666.887C599.683 667.49 601.032 671.888 600.118 676.097C599.125 680.674 579.135 679.1 575.13 678.742C575.019 678.754 560.049 679.825 549.797 679.825L549.786 679.825Z" fill="#2F2E43"/>
<path d="M662.415 600.524L642.595 612.894L660.133 641.035L679.953 628.665L662.415 600.524Z" fill="#F2A2A5"/>
<path d="M636.093 675.271C633.348 675.271 630.827 674.936 629.031 674.623C627.269 674.311 625.886 672.904 625.596 671.14C625.395 669.868 625.763 668.584 626.633 667.635L638.067 654.976L651.118 625.707L651.654 625.997C651.855 626.109 656.551 628.71 658.971 630.942C659.897 631.791 660.355 632.695 660.332 633.621C660.321 634.269 660.076 634.782 659.83 635.151C660.5 635.329 662.318 635.396 666.646 633.565C672.96 630.897 670.461 624.177 670.35 623.898L670.26 623.675L670.361 623.463C672.001 619.991 673.172 618.138 673.863 617.948C674.298 617.826 675.012 617.636 686.759 632.851C687.238 633.253 690.707 636.278 692.158 640.33C693.73 644.74 675.938 653.994 672.357 655.802C672.246 655.892 653.628 669.432 645.976 673.284C642.942 674.813 639.35 675.282 636.081 675.282L636.093 675.271Z" fill="#2F2E43"/>
<path d="M613.102 349.231H547.7L541.766 410.115L567.735 635.072H601.122L587.769 505.146L641.927 622.447L671.599 601.661L629.31 492.152C629.31 492.152 644.414 396.752 632.545 372.986C620.676 349.231 613.102 349.231 613.102 349.231Z" fill="#2F2E43"/>
<path d="M645.63 352.949H532.117L572.922 218.568H618.178L645.63 352.949Z" fill="#AB1959"/>
<path d="M580.061 218.59C580.061 218.59 551.872 217.842 548.905 225.277C545.938 232.7 511.067 409.4 511.067 409.4H534.069L580.072 218.59L580.061 218.59Z" fill="#AB1959"/>
<path d="M583.419 206.612C597.145 206.612 608.272 195.477 608.272 181.741C608.272 168.005 597.145 156.869 583.419 156.869C569.693 156.869 558.565 168.005 558.565 181.741C558.565 195.477 569.693 206.612 583.419 206.612Z" fill="#F2A2A5"/>
<path d="M588.238 143.094C588.238 143.094 618.155 135.425 627.314 175.266C627.314 175.266 627.559 185.659 632.757 189.867C637.955 194.076 636.215 215.855 636.215 215.855C636.215 215.855 646.11 232.187 637.699 239.61C637.699 239.61 633.984 254.702 639.428 263.365C644.871 272.028 665.397 319.672 631.262 322.574C631.262 322.574 613.95 312.114 622.115 280.936C630.281 249.757 621.122 232.533 621.122 232.533C621.122 232.533 594.908 223.022 596.392 202.727C597.875 182.433 579.57 162.384 578.343 162.641C577.116 162.897 564.243 155.463 558.554 178.236L552.464 177.197C552.464 177.197 549.898 138.886 588.238 143.094Z" fill="#683C33"/>
<path d="M665.006 424.348C666.668 432.519 663.623 439.987 658.224 441.025C652.825 442.063 647.103 436.27 645.452 428.098C644.749 424.839 644.86 421.468 645.775 418.253L639.205 383.524L656.183 380.834L660.857 415.35C662.965 417.985 664.382 421.066 665.006 424.348Z" fill="#F2A2A5"/>
<path d="M598.411 218.746C598.411 218.746 623.242 215.598 626.209 223.022C629.176 230.445 664.047 407.145 664.047 407.145H641.045L598.411 218.746Z" fill="#AB1959"/>
</svg>
