<svg width="101" height="101" viewBox="0 0 101 101" fill="none" xmlns="http://www.w3.org/2000/svg">
<path d="M83.973 81.0135L65.8482 50.5034L83.973 19.9798L92.7222 50.4966L83.9697 81.0068L83.973 81.0135ZM43.5811 78.0837L20.7887 55.4638H57.0215L75.1396 85.9773L43.5777 78.0905L43.5811 78.0837ZM43.5811 22.9163L75.1396 15.0294L57.0249 45.5429H20.7853L43.5811 22.9163ZM101 40.1178L89.9473 0L48.6899 10.7526L42.5876 21.2325L30.1946 21.1416L0 50.5034L30.198 79.8685L42.5843 79.7709L48.7033 90.2507L89.9439 101L101 60.899L94.7226 50.5034L101 40.1178Z" fill="white"/>
</svg>
