<svg width="128" height="128" viewBox="0 0 128 128" fill="none" xmlns="http://www.w3.org/2000/svg">
<path d="M103.296 99.7837L81.7675 63.5437L103.296 27.2877L113.688 63.5357L103.292 99.7757L103.296 99.7837ZM55.3195 96.3037L28.2475 69.4357H71.2835L92.8035 105.68L55.3155 96.3117L55.3195 96.3037ZM55.3195 30.7757L92.8035 21.4077L71.2875 57.6517H28.2435L55.3195 30.7757ZM123.52 51.2077L110.392 3.55566L61.3875 16.3277L54.1395 28.7757L39.4195 28.6677L3.55554 63.5437L39.4235 98.4237L54.1355 98.3077L61.4035 110.756L110.388 123.524L123.52 75.8917L116.064 63.5437L123.52 51.2077Z" fill="white"/>
</svg>
