<svg width="101" height="101" viewBox="0 0 101 101" fill="none" xmlns="http://www.w3.org/2000/svg">
<path d="M50.5005 2.04591e-09C40.5124 -8.98841e-05 30.7487 2.96165 22.4439 8.51068C14.1391 14.0597 7.66632 21.9468 3.84408 31.1745C0.021832 40.4023 -0.978205 50.5563 0.970432 60.3524C2.91907 70.1485 7.72886 79.1468 14.7916 86.2093C21.8543 93.2718 30.8526 98.0814 40.6488 100.03C50.445 101.978 60.5989 100.978 69.8266 97.1555C79.0542 93.333 86.9412 86.86 92.49 78.5551C98.0388 70.2502 101 60.4864 101 50.4983C100.985 37.1098 95.6593 24.274 86.1921 14.807C76.7249 5.34003 63.889 0.0149296 50.5005 2.04591e-09ZM5.09775 50.4983C5.09273 44.131 6.43231 37.8344 9.02883 32.0205L30.6872 91.3603C23.0154 87.6391 16.5465 81.8328 12.0209 74.6063C7.49535 67.3798 5.09608 59.025 5.09775 50.4983ZM50.5005 95.9047C46.1584 95.9048 41.8387 95.2818 37.6736 94.0548L51.2977 54.4698L65.2523 92.7047C65.3433 92.9219 65.4522 93.1312 65.5778 93.3305C60.7342 95.0369 55.6358 95.9074 50.5005 95.9047ZM56.7574 29.2107C59.4907 29.0671 61.9541 28.7795 61.9541 28.7795C62.4449 28.7342 62.8982 28.4976 63.2161 28.1208C63.5339 27.744 63.6907 27.2572 63.6527 26.7658C63.6146 26.2743 63.3847 25.8175 63.0127 25.4942C62.6406 25.1708 62.1563 25.0068 61.6643 25.0375C61.6643 25.0375 54.31 25.6148 49.5622 25.6148C45.1016 25.6148 37.6049 25.0375 37.6049 25.0375C37.1136 25.0083 36.6305 25.1731 36.2596 25.4966C35.8887 25.8201 35.6598 26.2764 35.622 26.7671C35.5843 27.2578 35.7408 27.7437 36.0578 28.1201C36.3749 28.4965 36.8271 28.7333 37.3171 28.7795C37.3171 28.7795 39.6325 29.0671 42.0792 29.2107L49.1529 48.5925L39.2146 78.3916L22.6819 29.2107C25.4173 29.0671 27.878 28.7797 27.878 28.7797C28.3685 28.7338 28.8213 28.4969 29.1386 28.1202C29.456 27.7434 29.6125 27.2569 29.5744 26.7658C29.5363 26.2746 29.3067 25.8182 28.935 25.4949C28.5633 25.1716 28.0794 25.0073 27.5877 25.0377C27.5877 25.0377 20.2353 25.615 15.4874 25.615C14.6354 25.615 13.6306 25.594 12.5654 25.5598C16.1752 20.0661 20.9351 15.422 26.5161 11.9487C32.0971 8.47539 38.3659 6.25575 44.889 5.44328C51.4121 4.6308 58.0339 5.24489 64.2963 7.24306C70.5588 9.24123 76.3125 12.5758 81.1596 17.0162C80.9642 17.0042 80.7731 16.9798 80.5721 16.9798C78.494 17.0417 76.525 17.9243 75.0961 19.4345C73.6671 20.9446 72.8946 22.9593 72.9475 25.0377C73.4235 28.9307 74.9671 32.6162 77.4075 35.6865C79.7936 39.4319 81.0897 43.7677 81.1506 48.2081C80.6789 53.2362 79.5164 58.1752 77.696 62.8858L73.1662 78.0172L56.7574 29.2107ZM73.3263 89.7427L87.1939 49.6476C89.395 44.5041 90.568 38.9794 90.6467 33.3852C90.6496 31.8238 90.5476 30.264 90.3416 28.7163C96.0156 39.1001 97.4122 51.2887 94.2342 62.6869C91.0561 74.0851 83.5545 83.7927 73.3263 89.7427Z" fill="white"/>
</svg>
